<?xml version="1.0" encoding="UTF-8" standalone="no"?>
<!-- Created with Inkscape (http://www.inkscape.org/) -->

<svg
   width="268.25772mm"
   height="116.58857mm"
   viewBox="0 0 268.25772 116.58857"
   version="1.1"
   id="svg1"
   xml:space="preserve"
   xmlns="http://www.w3.org/2000/svg"
   xmlns:svg="http://www.w3.org/2000/svg"><defs
     id="defs1"><rect
       x="550.45416"
       y="554.65527"
       width="226.28369"
       height="22.88262"
       id="rect4" /><rect
       x="344.45621"
       y="597.53564"
       width="456.99255"
       height="74.034012"
       id="rect2" /></defs><g
     id="layer1"
     transform="translate(-14.371145,-45.118211)"><text
       xml:space="preserve"
       transform="scale(0.26458333)"
       id="text2"
       style="white-space:pre;shape-inside:url(#rect2);fill:#000000" /><g
       id="g6"
       transform="matrix(2.6214887,0,0,2.6214887,-405.97534,-176.26717)"><g
         id="g12"
         transform="matrix(0.06623819,0,0,0.06623819,195.09179,84.450252)"><g
           id="g2">
	<path
   style="fill:#ffffff"
   d="m 456,472 h -16 c -8.84,0 -16,-7.16 -16,-16 v -64 c 0,-8.84 7.16,-16 16,-16 h 16 c 8.84,0 16,7.16 16,16 v 64 c 0,8.84 -7.16,16 -16,16 z"
   id="path1" />
	<path
   style="fill:#ffffff"
   d="M 376,472 H 24 C 15.16,472 8,464.84 8,456 v -64 c 0,-8.84 7.16,-16 16,-16 h 352 c 8.84,0 16,7.16 16,16 v 64 c 0,8.84 -7.16,16 -16,16 z"
   id="path2" />
</g><path
           id="SVGCleanerId_0"
           style="fill:#6fa0e3"
           d="M 456,264 H 24 C 15.16,264 8,256.84 8,248 v -32 h 464 v 32 c 0,8.84 -7.16,16 -16,16 z" /><g
           id="g3">
	<path
   id="SVGCleanerId_0_1_"
   style="fill:#6fa0e3"
   d="M 456,264 H 24 C 15.16,264 8,256.84 8,248 v -32 h 464 v 32 c 0,8.84 -7.16,16 -16,16 z" />
</g><path
           id="SVGCleanerId_1"
           style="fill:#ffffff"
           d="M 472,216 H 8 V 24 C 8,15.16 15.16,8 24,8 h 432 c 8.84,0 16,7.16 16,16 z" /><g
           id="g4">
	<path
   id="SVGCleanerId_1_1_"
   style="fill:#ffffff"
   d="M 472,216 H 8 V 24 C 8,15.16 15.16,8 24,8 h 432 c 8.84,0 16,7.16 16,16 z" />
</g><g
           id="g5">
	<polygon
   style="fill:#6fa0e3"
   points="208,344 192,264 288,264 272,344 "
   id="polygon4" />
	<polygon
   style="fill:#6fa0e3"
   points="208,344 192,264 288,264 272,344 "
   id="polygon5" />
</g><g
           id="g21">
	<path
   style="fill:#4d4d4d"
   d="M 472,224 H 8 c -4.424,0 -8,-3.576 -8,-8 V 24 C 0,10.768 10.768,0 24,0 h 432 c 13.232,0 24,10.768 24,24 v 192 c 0,4.424 -3.576,8 -8,8 z M 16,208 H 464 V 24 c 0,-4.416 -3.584,-8 -8,-8 H 24 c -4.416,0 -8,3.584 -8,8 z"
   id="path5" />
	<path
   style="fill:#4d4d4d"
   d="m 456,368 h -16 c -13.232,0 -24,10.768 -24,24 v 64 c 0,13.232 10.768,24 24,24 h 16 c 13.232,0 24,-10.768 24,-24 v -64 c 0,-13.232 -10.768,-24 -24,-24 z m 8,88 c 0,4.416 -3.584,8 -8,8 h -16 c -4.416,0 -8,-3.584 -8,-8 v -64 c 0,-4.416 3.584,-8 8,-8 h 16 c 4.416,0 8,3.584 8,8 z"
   id="path6" />
	<path
   style="fill:#4d4d4d"
   d="M 376,368 H 24 C 10.768,368 0,378.768 0,392 v 64 c 0,13.232 10.768,24 24,24 h 352 c 13.232,0 24,-10.768 24,-24 v -64 c 0,-13.232 -10.768,-24 -24,-24 z m 8,88 c 0,4.416 -3.584,8 -8,8 H 24 c -4.416,0 -8,-3.584 -8,-8 v -64 c 0,-4.416 3.584,-8 8,-8 h 352 c 4.416,0 8,3.584 8,8 z"
   id="path7" />
	<path
   style="fill:#4d4d4d"
   d="m 48,400 h -8 c -4.424,0 -8,3.576 -8,8 0,4.424 3.576,8 8,8 h 8 c 4.424,0 8,-3.576 8,-8 0,-4.424 -3.576,-8 -8,-8 z"
   id="path8" />
	<path
   style="fill:#4d4d4d"
   d="m 48,432 h -8 c -4.424,0 -8,3.576 -8,8 0,4.424 3.576,8 8,8 h 8 c 4.424,0 8,-3.576 8,-8 0,-4.424 -3.576,-8 -8,-8 z"
   id="path9" />
	<path
   style="fill:#4d4d4d"
   d="m 88,416 h 8 c 4.424,0 8,-3.576 8,-8 0,-4.424 -3.576,-8 -8,-8 h -8 c -4.424,0 -8,3.576 -8,8 0,4.424 3.576,8 8,8 z"
   id="path10" />
	<path
   style="fill:#4d4d4d"
   d="M 240,432 H 88 c -4.424,0 -8,3.576 -8,8 0,4.424 3.576,8 8,8 h 152 c 4.424,0 8,-3.576 8,-8 0,-4.424 -3.576,-8 -8,-8 z"
   id="path11" />
	<path
   style="fill:#4d4d4d"
   d="m 136,416 h 8 c 4.424,0 8,-3.576 8,-8 0,-4.424 -3.576,-8 -8,-8 h -8 c -4.424,0 -8,3.576 -8,8 0,4.424 3.576,8 8,8 z"
   id="path12" />
	<path
   style="fill:#4d4d4d"
   d="m 184,416 h 8 c 4.424,0 8,-3.576 8,-8 0,-4.424 -3.576,-8 -8,-8 h -8 c -4.424,0 -8,3.576 -8,8 0,4.424 3.576,8 8,8 z"
   id="path13" />
	<path
   style="fill:#4d4d4d"
   d="m 240,400 h -8 c -4.424,0 -8,3.576 -8,8 0,4.424 3.576,8 8,8 h 8 c 4.424,0 8,-3.576 8,-8 0,-4.424 -3.576,-8 -8,-8 z"
   id="path14" />
	<path
   style="fill:#4d4d4d"
   d="m 288,400 h -8 c -4.424,0 -8,3.576 -8,8 0,4.424 3.576,8 8,8 h 8 c 4.424,0 8,-3.576 8,-8 0,-4.424 -3.576,-8 -8,-8 z"
   id="path15" />
	<path
   style="fill:#4d4d4d"
   d="m 288,432 h -8 c -4.424,0 -8,3.576 -8,8 0,4.424 3.576,8 8,8 h 8 c 4.424,0 8,-3.576 8,-8 0,-4.424 -3.576,-8 -8,-8 z"
   id="path16" />
	<path
   style="fill:#4d4d4d"
   d="m 328,416 h 24 c 4.424,0 8,-3.576 8,-8 0,-4.424 -3.576,-8 -8,-8 h -24 c -4.424,0 -8,3.576 -8,8 0,4.424 3.576,8 8,8 z"
   id="path17" />
	<path
   style="fill:#4d4d4d"
   d="m 360,432 h -32 c -4.424,0 -8,3.576 -8,8 0,4.424 3.576,8 8,8 h 32 c 4.424,0 8,-3.576 8,-8 0,-4.424 -3.576,-8 -8,-8 z"
   id="path18" />
	<path
   style="fill:#4d4d4d"
   d="M 456,0 H 24 C 10.768,0 0,10.768 0,24 v 224 c 0,13.232 10.768,24 24,24 h 161.44 l 12.8,64 H 168 c -4.424,0 -8,3.576 -8,8 0,4.424 3.576,8 8,8 h 40 64 40 c 4.424,0 8,-3.576 8,-8 0,-4.424 -3.576,-8 -8,-8 h -30.24 l 12.8,-64 H 456 c 13.232,0 24,-10.768 24,-24 V 24 C 480,10.768 469.232,0 456,0 Z M 16,24 c 0,-4.416 3.584,-8 8,-8 h 432 c 4.416,0 8,3.584 8,8 V 208 H 16 Z M 265.448,336 H 214.56 l -12.8,-64 h 76.488 z M 464,248 c 0,4.416 -3.584,8 -8,8 H 288 192 24 c -4.416,0 -8,-3.584 -8,-8 v -24 h 448 z"
   id="path19" />
	<path
   style="fill:#4d4d4d"
   d="m 432,40 h -64 c -4.424,0 -8,3.576 -8,8 0,4.424 3.576,8 8,8 h 64 c 4.424,0 8,-3.576 8,-8 0,-4.424 -3.576,-8 -8,-8 z"
   id="path20" />
	<path
   style="fill:#4d4d4d"
   d="m 336,40 h -8 c -4.424,0 -8,3.576 -8,8 0,4.424 3.576,8 8,8 h 8 c 4.424,0 8,-3.576 8,-8 0,-4.424 -3.576,-8 -8,-8 z"
   id="path21" />
	<circle
   style="fill:#4d4d4d"
   cx="239.832"
   cy="296.16"
   r="7.8319998"
   id="circle21" />
</g></g><text
         xml:space="preserve"
         style="font-style:normal;font-variant:normal;font-weight:normal;font-stretch:normal;font-size:4.23972px;font-family:'PakType Naskh Basic';-inkscape-font-specification:'PakType Naskh Basic, Normal';font-variant-ligatures:normal;font-variant-caps:normal;font-variant-numeric:normal;font-variant-east-asian:normal;fill:#000000;stroke-width:0.353309"
         x="159.7793"
         y="128.75296"
         id="text3"><tspan
           id="tspan6"
           style="font-style:normal;font-variant:normal;font-weight:normal;font-stretch:normal;font-size:13.1903px;font-family:PaulSlabSoft-SemiBold;-inkscape-font-specification:'PaulSlabSoft-SemiBold, @wght=700';font-variant-ligatures:normal;font-variant-caps:normal;font-variant-numeric:normal;font-variant-east-asian:normal;font-variation-settings:'wght' 700;stroke-width:0.353309"
           x="159.7793"
           y="128.75296">Simão's CS Notes</tspan></text></g><text
       xml:space="preserve"
       transform="scale(0.26458333)"
       id="text4"
       style="white-space:pre;shape-inside:url(#rect4);fill:#ffffff" /></g></svg>