<?xml version="1.0" encoding="UTF-8" standalone="no"?>
<!-- Created with Inkscape (http://www.inkscape.org/) -->

<svg
   width="268.25772mm"
   height="116.58857mm"
   viewBox="0 0 268.25772 116.58857"
   version="1.1"
   id="svg1"
   xml:space="preserve"
   sodipodi:docname="logo.svg"
   inkscape:version="1.3.2 (091e20ef0f, 2023-11-25)"
   inkscape:export-filename="../../../../Desktop/logo.png"
   inkscape:export-xdpi="96"
   inkscape:export-ydpi="96"
   xmlns:inkscape="http://www.inkscape.org/namespaces/inkscape"
   xmlns:sodipodi="http://sodipodi.sourceforge.net/DTD/sodipodi-0.dtd"
   xmlns="http://www.w3.org/2000/svg"
   xmlns:svg="http://www.w3.org/2000/svg"><sodipodi:namedview
     id="namedview1"
     pagecolor="#ffffff"
     bordercolor="#000000"
     borderopacity="0.25"
     inkscape:showpageshadow="2"
     inkscape:pageopacity="0.0"
     inkscape:pagecheckerboard="0"
     inkscape:deskcolor="#d1d1d1"
     inkscape:document-units="mm"
     inkscape:zoom="1.0366042"
     inkscape:cx="506.94372"
     inkscape:cy="220.43129"
     inkscape:window-width="1920"
     inkscape:window-height="1131"
     inkscape:window-x="0"
     inkscape:window-y="0"
     inkscape:window-maximized="1"
     inkscape:current-layer="g6" /><defs
     id="defs1"><rect
       x="550.45416"
       y="554.65527"
       width="226.28369"
       height="22.88262"
       id="rect4" /><rect
       x="344.45621"
       y="597.53564"
       width="456.99255"
       height="74.034012"
       id="rect2" /></defs><g
     id="layer1"
     transform="translate(-14.371145,-45.118211)"><text
       xml:space="preserve"
       transform="scale(0.26458333)"
       id="text2"
       style="white-space:pre;shape-inside:url(#rect2);display:inline;fill:#000000" /><g
       id="g6"
       transform="matrix(2.6214887,0,0,2.6214887,-405.97534,-176.26717)"><g
         id="g12"
         transform="matrix(0.06623819,0,0,0.06623819,195.09179,84.450252)"><g
           id="g2">
	<path
   style="fill:#ffffff"
   d="m 456,472 h -16 c -8.84,0 -16,-7.16 -16,-16 v -64 c 0,-8.84 7.16,-16 16,-16 h 16 c 8.84,0 16,7.16 16,16 v 64 c 0,8.84 -7.16,16 -16,16 z"
   id="path1" />
	<path
   style="fill:#ffffff"
   d="M 376,472 H 24 C 15.16,472 8,464.84 8,456 v -64 c 0,-8.84 7.16,-16 16,-16 h 352 c 8.84,0 16,7.16 16,16 v 64 c 0,8.84 -7.16,16 -16,16 z"
   id="path2" />
</g><path
           id="SVGCleanerId_0"
           style="fill:#6fa0e3"
           d="M 456,264 H 24 C 15.16,264 8,256.84 8,248 v -32 h 464 v 32 c 0,8.84 -7.16,16 -16,16 z" /><g
           id="g3">
	<path
   id="SVGCleanerId_0_1_"
   style="fill:#6fa0e3"
   d="M 456,264 H 24 C 15.16,264 8,256.84 8,248 v -32 h 464 v 32 c 0,8.84 -7.16,16 -16,16 z" />
</g><path
           id="SVGCleanerId_1"
           style="fill:#ffffff"
           d="M 472,216 H 8 V 24 C 8,15.16 15.16,8 24,8 h 432 c 8.84,0 16,7.16 16,16 z" /><g
           id="g4">
	<path
   id="SVGCleanerId_1_1_"
   style="fill:#ffffff"
   d="M 472,216 H 8 V 24 C 8,15.16 15.16,8 24,8 h 432 c 8.84,0 16,7.16 16,16 z" />
</g><g
           id="g5">
	<path
   id="polygon4"
   style="fill:#6fa0e3"
   d="m 208,344 -16,-80 h 96 l -16,80 z" />
	<path
   id="polygon5"
   style="fill:#6fa0e3"
   d="m 208,344 -16,-80 h 96 l -16,80 z" />
</g><g
           id="g21">
	<path
   style="fill:#4d4d4d"
   d="M 472,224 H 8 c -4.424,0 -8,-3.576 -8,-8 V 24 C 0,10.768 10.768,0 24,0 h 432 c 13.232,0 24,10.768 24,24 v 192 c 0,4.424 -3.576,8 -8,8 z M 16,208 H 464 V 24 c 0,-4.416 -3.584,-8 -8,-8 H 24 c -4.416,0 -8,3.584 -8,8 z"
   id="path5" />
	<path
   style="fill:#4d4d4d"
   d="m 456,368 h -16 c -13.232,0 -24,10.768 -24,24 v 64 c 0,13.232 10.768,24 24,24 h 16 c 13.232,0 24,-10.768 24,-24 v -64 c 0,-13.232 -10.768,-24 -24,-24 z m 8,88 c 0,4.416 -3.584,8 -8,8 h -16 c -4.416,0 -8,-3.584 -8,-8 v -64 c 0,-4.416 3.584,-8 8,-8 h 16 c 4.416,0 8,3.584 8,8 z"
   id="path6" />
	<path
   style="fill:#4d4d4d"
   d="M 376,368 H 24 C 10.768,368 0,378.768 0,392 v 64 c 0,13.232 10.768,24 24,24 h 352 c 13.232,0 24,-10.768 24,-24 v -64 c 0,-13.232 -10.768,-24 -24,-24 z m 8,88 c 0,4.416 -3.584,8 -8,8 H 24 c -4.416,0 -8,-3.584 -8,-8 v -64 c 0,-4.416 3.584,-8 8,-8 h 352 c 4.416,0 8,3.584 8,8 z"
   id="path7" />
	<path
   style="fill:#4d4d4d"
   d="m 48,400 h -8 c -4.424,0 -8,3.576 -8,8 0,4.424 3.576,8 8,8 h 8 c 4.424,0 8,-3.576 8,-8 0,-4.424 -3.576,-8 -8,-8 z"
   id="path8" />
	<path
   style="fill:#4d4d4d"
   d="m 48,432 h -8 c -4.424,0 -8,3.576 -8,8 0,4.424 3.576,8 8,8 h 8 c 4.424,0 8,-3.576 8,-8 0,-4.424 -3.576,-8 -8,-8 z"
   id="path9" />
	<path
   style="fill:#4d4d4d"
   d="m 88,416 h 8 c 4.424,0 8,-3.576 8,-8 0,-4.424 -3.576,-8 -8,-8 h -8 c -4.424,0 -8,3.576 -8,8 0,4.424 3.576,8 8,8 z"
   id="path10" />
	<path
   style="fill:#4d4d4d"
   d="M 240,432 H 88 c -4.424,0 -8,3.576 -8,8 0,4.424 3.576,8 8,8 h 152 c 4.424,0 8,-3.576 8,-8 0,-4.424 -3.576,-8 -8,-8 z"
   id="path11" />
	<path
   style="fill:#4d4d4d"
   d="m 136,416 h 8 c 4.424,0 8,-3.576 8,-8 0,-4.424 -3.576,-8 -8,-8 h -8 c -4.424,0 -8,3.576 -8,8 0,4.424 3.576,8 8,8 z"
   id="path12" />
	<path
   style="fill:#4d4d4d"
   d="m 184,416 h 8 c 4.424,0 8,-3.576 8,-8 0,-4.424 -3.576,-8 -8,-8 h -8 c -4.424,0 -8,3.576 -8,8 0,4.424 3.576,8 8,8 z"
   id="path13" />
	<path
   style="fill:#4d4d4d"
   d="m 240,400 h -8 c -4.424,0 -8,3.576 -8,8 0,4.424 3.576,8 8,8 h 8 c 4.424,0 8,-3.576 8,-8 0,-4.424 -3.576,-8 -8,-8 z"
   id="path14" />
	<path
   style="fill:#4d4d4d"
   d="m 288,400 h -8 c -4.424,0 -8,3.576 -8,8 0,4.424 3.576,8 8,8 h 8 c 4.424,0 8,-3.576 8,-8 0,-4.424 -3.576,-8 -8,-8 z"
   id="path15" />
	<path
   style="fill:#4d4d4d"
   d="m 288,432 h -8 c -4.424,0 -8,3.576 -8,8 0,4.424 3.576,8 8,8 h 8 c 4.424,0 8,-3.576 8,-8 0,-4.424 -3.576,-8 -8,-8 z"
   id="path16" />
	<path
   style="fill:#4d4d4d"
   d="m 328,416 h 24 c 4.424,0 8,-3.576 8,-8 0,-4.424 -3.576,-8 -8,-8 h -24 c -4.424,0 -8,3.576 -8,8 0,4.424 3.576,8 8,8 z"
   id="path17" />
	<path
   style="fill:#4d4d4d"
   d="m 360,432 h -32 c -4.424,0 -8,3.576 -8,8 0,4.424 3.576,8 8,8 h 32 c 4.424,0 8,-3.576 8,-8 0,-4.424 -3.576,-8 -8,-8 z"
   id="path18" />
	<path
   style="fill:#4d4d4d"
   d="M 456,0 H 24 C 10.768,0 0,10.768 0,24 v 224 c 0,13.232 10.768,24 24,24 h 161.44 l 12.8,64 H 168 c -4.424,0 -8,3.576 -8,8 0,4.424 3.576,8 8,8 h 40 64 40 c 4.424,0 8,-3.576 8,-8 0,-4.424 -3.576,-8 -8,-8 h -30.24 l 12.8,-64 H 456 c 13.232,0 24,-10.768 24,-24 V 24 C 480,10.768 469.232,0 456,0 Z M 16,24 c 0,-4.416 3.584,-8 8,-8 h 432 c 4.416,0 8,3.584 8,8 V 208 H 16 Z M 265.448,336 H 214.56 l -12.8,-64 h 76.488 z M 464,248 c 0,4.416 -3.584,8 -8,8 H 288 192 24 c -4.416,0 -8,-3.584 -8,-8 v -24 h 448 z"
   id="path19" />
	<path
   style="fill:#4d4d4d"
   d="m 432,40 h -64 c -4.424,0 -8,3.576 -8,8 0,4.424 3.576,8 8,8 h 64 c 4.424,0 8,-3.576 8,-8 0,-4.424 -3.576,-8 -8,-8 z"
   id="path20" />
	<path
   style="fill:#4d4d4d"
   d="m 336,40 h -8 c -4.424,0 -8,3.576 -8,8 0,4.424 3.576,8 8,8 h 8 c 4.424,0 8,-3.576 8,-8 0,-4.424 -3.576,-8 -8,-8 z"
   id="path21" />
	<path
   id="circle21"
   style="fill:#4d4d4d"
   d="m 247.664,296.16 a 7.8319998,7.8319998 0 0 1 -7.832,7.832 7.8319998,7.8319998 0 0 1 -7.832,-7.832 7.8319998,7.8319998 0 0 1 7.832,-7.832 7.8319998,7.8319998 0 0 1 7.832,7.832 z" />
</g></g><path
         style="font-size:13.1903px;font-family:PaulSlabSoft-SemiBold;-inkscape-font-specification:'PaulSlabSoft-SemiBold, @wght=700';font-variation-settings:'wght' 700;fill:#ffffff;stroke-width:0.353309"
         d="m 160.61029,128.23854 q -0.26381,-0.11871 -0.26381,-0.4089 v -1.83345 q 0,-0.34295 0.35614,-0.34295 h 1.02884 q 0.35614,0 0.35614,0.34295 v 1.10798 q 0.77823,0.35614 1.68836,0.35614 0.80461,0 1.25308,-0.29019 0.46166,-0.30337 0.46166,-0.84417 0,-0.4089 -0.29019,-0.69909 -0.277,-0.30338 -0.72547,-0.48804 -0.44847,-0.19786 -0.98927,-0.35614 -0.5408,-0.17147 -1.0816,-0.38252 -0.54081,-0.22423 -0.98928,-0.50123 -0.44847,-0.29019 -0.73865,-0.79142 -0.277,-0.50123 -0.277,-1.16074 0,-1.25308 0.91013,-1.92579 0.92332,-0.68589 2.36107,-0.68589 1.51688,0 2.96781,0.71227 0.26381,0.11871 0.26381,0.4089 v 1.70155 q 0,0.35614 -0.35614,0.35614 h -1.02884 q -0.35614,0 -0.35614,-0.35614 v -1.02884 q -0.71228,-0.35614 -1.4905,-0.35614 -0.6859,0 -1.10799,0.30338 -0.4089,0.30337 -0.4089,0.79141 0,0.36933 0.277,0.64633 0.29018,0.27699 0.73865,0.44847 0.44847,0.17147 0.98928,0.34295 0.5408,0.15828 1.0816,0.38252 0.5408,0.22423 0.98927,0.52761 0.44847,0.29018 0.72547,0.80461 0.29019,0.50123 0.29019,1.17393 0,1.26627 -0.93651,1.99174 -0.93652,0.72546 -2.54573,0.72546 -1.58284,0 -3.15248,-0.6727 z m 9.73442,-7.41295 q -0.27699,0.277 -0.68589,0.277 -0.4089,0 -0.69909,-0.277 -0.27699,-0.29019 -0.27699,-0.69909 0,-0.4089 0.27699,-0.68589 0.29019,-0.29019 0.69909,-0.29019 0.4089,0 0.68589,0.29019 0.277,0.27699 0.277,0.68589 0,0.4089 -0.277,0.69909 z m 0.65952,6.67429 q 0.35614,0 0.35614,0.35614 v 0.5408 q 0,0.35614 -0.35614,0.35614 h -2.69082 q -0.34295,0 -0.34295,-0.35614 v -0.5408 q 0,-0.35614 0.34295,-0.35614 h 0.52761 v -4.08899 h -0.52761 q -0.34295,0 -0.34295,-0.35614 v -0.5408 q 0,-0.35614 0.34295,-0.35614 h 1.82026 q 0.34295,0 0.34295,0.35614 v 4.98593 z m 11.89765,0 q 0.35614,0 0.35614,0.35614 v 0.5408 q 0,0.35614 -0.35614,0.35614 h -2.66444 q -0.35613,0 -0.35613,-0.35614 v -0.5408 q 0,-0.35614 0.35613,-0.35614 h 0.50124 v -2.78315 q 0,-0.61995 -0.32976,-0.97608 -0.31657,-0.35614 -0.84418,-0.35614 -0.56718,0 -0.89694,0.4089 -0.32976,0.4089 -0.32976,1.10798 v 2.59849 h 0.51442 q 0.34295,0 0.34295,0.35614 v 0.5408 q 0,0.35614 -0.34295,0.35614 h -2.65125 q -0.35614,0 -0.35614,-0.35614 v -0.5408 q 0,-0.35614 0.35614,-0.35614 h 0.50123 v -2.78315 q 0,-0.61995 -0.31656,-0.97608 -0.31657,-0.35614 -0.84418,-0.35614 -0.56719,0 -0.89694,0.4089 -0.32976,0.4089 -0.32976,1.10798 v 2.59849 h 0.51442 q 0.35614,0 0.35614,0.35614 v 0.5408 q 0,0.35614 -0.35614,0.35614 h -2.67763 q -0.34295,0 -0.34295,-0.35614 v -0.5408 q 0,-0.35614 0.34295,-0.35614 h 0.52761 v -4.08899 h -0.52761 q -0.34295,0 -0.34295,-0.35614 v -0.5408 q 0,-0.35614 0.34295,-0.35614 h 1.62241 q 0.34294,0 0.34294,0.35614 v 0.58037 q 0.554,-1.12117 1.9126,-1.12117 1.37179,0 1.97854,1.16074 0.59357,-1.16074 2.01812,-1.16074 1.0816,0 1.71474,0.71227 0.63313,0.71228 0.63313,1.92579 v 2.88867 z m 1.75432,-6.47644 q -0.38252,0 -0.34295,-0.36932 0.0923,-0.58038 0.46166,-0.91013 0.36933,-0.34295 0.89694,-0.34295 0.44847,0 1.02885,0.30337 0.59356,0.30338 0.84418,0.30338 0.32975,0 0.46166,-0.34295 0.1319,-0.29018 0.35614,-0.29018 h 0.2638 q 0.18467,0 0.277,0.10552 0.0923,0.0923 0.0659,0.26381 -0.0923,0.58037 -0.44847,0.92332 -0.35614,0.32975 -0.88375,0.32975 -0.46166,0 -1.04203,-0.29018 -0.58038,-0.30338 -0.83099,-0.30338 -0.32976,0 -0.44847,0.32976 -0.18467,0.29018 -0.38252,0.29018 z m 5.28931,6.47644 q 0.34295,0 0.34295,0.35614 v 0.5408 q 0,0.35614 -0.34295,0.35614 h -1.6356 q -0.35613,0 -0.35613,-0.35614 v -0.39571 q -0.6859,0.92332 -2.11045,0.92332 -1.05523,0 -1.67517,-0.51442 -0.60675,-0.52761 -0.60675,-1.42455 0,-0.9497 0.69908,-1.51688 0.71228,-0.56719 1.92579,-0.56719 0.92332,0 1.60921,0.29019 v -0.80461 q 0,-0.55399 -0.34295,-0.87056 -0.34294,-0.31657 -1.01565,-0.31657 -0.44847,0 -0.96289,0.17148 v 0.6727 q 0,0.35614 -0.35614,0.35614 h -0.79142 q -0.34294,0 -0.34294,-0.35614 v -1.02884 q 0,-0.29019 0.23742,-0.42209 1.08161,-0.61994 2.32149,-0.61994 1.34541,0 2.11045,0.65951 0.76504,0.64633 0.76504,1.7675 v 3.09972 z m -3.57457,0.18467 q 0.65952,0 1.04203,-0.32976 0.38252,-0.32976 0.38252,-0.91013 v -0.21105 q -0.64632,-0.30337 -1.31903,-0.30337 -0.59356,0 -0.92332,0.23742 -0.32976,0.22424 -0.32976,0.64633 0,0.4089 0.30338,0.64632 0.30338,0.22424 0.84418,0.22424 z m 7.43932,1.22669 q -1.53008,0 -2.42702,-0.92332 -0.88375,-0.93651 -0.88375,-2.54573 0,-1.60921 0.88375,-2.53253 0.89694,-0.93651 2.42702,-0.93651 1.51688,0 2.40063,0.93651 0.89694,0.92332 0.89694,2.53253 0,1.60922 -0.89694,2.54573 -0.88375,0.92332 -2.40063,0.92332 z m 0,-1.38498 q 0.72547,0 1.14756,-0.55399 0.43528,-0.56718 0.43528,-1.53008 0,-0.96289 -0.43528,-1.51688 -0.42209,-0.56718 -1.14756,-0.56718 -0.73866,0 -1.17394,0.56718 -0.42209,0.55399 -0.42209,1.51688 0,0.9629 0.42209,1.53008 0.43528,0.55399 1.17394,0.55399 z m 5.34207,-4.85403 q -0.0264,0.34295 -0.36933,0.34295 h -0.51442 q -0.36933,0 -0.36933,-0.34295 l -0.11871,-2.79634 q -0.0264,-0.35614 0.32976,-0.35614 h 0.84418 q 0.35613,0 0.34294,0.35614 z m 3.99665,6.23901 q -1.14755,0 -2.25554,-0.36932 -0.29018,-0.0791 -0.29018,-0.39571 v -1.21351 q 0,-0.34295 0.34294,-0.34295 h 0.77823 q 0.35614,0 0.35614,0.34295 v 0.59356 q 0.51442,0.15829 1.02884,0.15829 1.21351,0 1.21351,-0.72547 0,-0.38252 -0.38252,-0.61994 -0.36933,-0.23743 -0.91013,-0.38252 -0.5408,-0.1451 -1.09479,-0.32976 -0.54081,-0.18467 -0.92332,-0.60675 -0.36933,-0.42209 -0.36933,-1.06842 0,-0.92332 0.69908,-1.45093 0.69909,-0.52761 1.84665,-0.52761 1.18712,0 2.32149,0.61994 0.25061,0.1319 0.25061,0.42209 v 0.93651 q 0,0.35614 -0.35613,0.35614 h -0.6859 q -0.35614,0 -0.35614,-0.35614 v -0.56718 q -0.56718,-0.22424 -1.12117,-0.22424 -0.9629,0 -0.9629,0.61995 0,0.32975 0.38252,0.55399 0.38252,0.21104 0.92332,0.36933 0.554,0.15828 1.0948,0.38252 0.55399,0.21104 0.93651,0.6727 0.38252,0.44847 0.38252,1.12118 0,0.9497 -0.73866,1.4905 -0.72546,0.5408 -2.11045,0.5408 z m 6.56876,-4.84084 q 0,-2.1764 1.16075,-3.45585 1.16074,-1.27946 3.16567,-1.27946 1.55645,0 3.02058,0.71227 0.25061,0.11871 0.25061,0.4089 v 2.22916 q 0,0.35614 -0.35613,0.35614 h -1.08161 q -0.34295,0 -0.34295,-0.35614 v -1.4905 q -0.65951,-0.34295 -1.43774,-0.34295 -1.18713,0 -1.88621,0.87056 -0.69909,0.87056 -0.69909,2.33468 0,1.47732 0.71228,2.36107 0.71227,0.88375 1.91259,0.88375 1.29265,0 2.18959,-0.93651 0.277,-0.25062 0.50123,0 l 0.59357,0.63313 q 0.22423,0.25062 0.0264,0.47485 -0.54081,0.61995 -1.43775,1.02884 -0.89694,0.4089 -1.99173,0.4089 -1.93898,0 -3.1261,-1.31903 -1.17394,-1.31903 -1.17394,-3.52181 z m 8.87708,4.16814 q -0.26381,-0.11871 -0.26381,-0.4089 v -1.83345 q 0,-0.34295 0.35614,-0.34295 h 1.02884 q 0.35614,0 0.35614,0.34295 v 1.10798 q 0.77823,0.35614 1.68836,0.35614 0.80461,0 1.25308,-0.29019 0.46166,-0.30337 0.46166,-0.84417 0,-0.4089 -0.29019,-0.69909 -0.27699,-0.30338 -0.72546,-0.48804 -0.44848,-0.19786 -0.98928,-0.35614 -0.5408,-0.17147 -1.0816,-0.38252 -0.5408,-0.22423 -0.98927,-0.50123 -0.44847,-0.29019 -0.73866,-0.79142 -0.277,-0.50123 -0.277,-1.16074 0,-1.25308 0.91013,-1.92579 0.92332,-0.68589 2.36107,-0.68589 1.51688,0 2.96781,0.71227 0.26381,0.11871 0.26381,0.4089 v 1.70155 q 0,0.35614 -0.35614,0.35614 h -1.02884 q -0.35614,0 -0.35614,-0.35614 v -1.02884 q -0.71228,-0.35614 -1.4905,-0.35614 -0.6859,0 -1.10799,0.30338 -0.4089,0.30337 -0.4089,0.79141 0,0.36933 0.277,0.64633 0.29019,0.27699 0.73866,0.44847 0.44847,0.17147 0.98927,0.34295 0.5408,0.15828 1.0816,0.38252 0.5408,0.22423 0.98927,0.52761 0.44848,0.29018 0.72547,0.80461 0.29019,0.50123 0.29019,1.17393 0,1.26627 -0.93651,1.99174 -0.93651,0.72546 -2.54573,0.72546 -1.58284,0 -3.15248,-0.6727 z m 10.40713,0.15828 v -0.73865 q 0,-0.34295 0.35613,-0.34295 h 0.75185 v -6.35773 h -0.75185 q -0.35613,0 -0.35613,-0.34294 v -0.73866 q 0,-0.35614 0.35613,-0.35614 h 2.59849 q 0.29019,0 0.42209,0.23743 l 2.82273,4.72212 1.09479,2.00493 v -5.52674 h -0.75185 q -0.34294,0 -0.34294,-0.34294 v -0.73866 q 0,-0.35614 0.34294,-0.35614 h 3.09972 q 0.35614,0 0.35614,0.35614 v 0.73866 q 0,0.34294 -0.35614,0.34294 h -0.72546 v 7.43933 q 0,0.35614 -0.35614,0.35614 h -1.51688 q -0.29019,0 -0.42209,-0.23743 l -2.69083,-4.40556 -1.23988,-2.26873 v 5.47398 h 0.75184 q 0.34295,0 0.34295,0.34295 v 0.73865 q 0,0.35614 -0.34295,0.35614 h -3.08653 q -0.35613,0 -0.35613,-0.35614 z m 13.45411,0.51442 q -1.53008,0 -2.42702,-0.92332 -0.88375,-0.93651 -0.88375,-2.54573 0,-1.60921 0.88375,-2.53253 0.89694,-0.93651 2.42702,-0.93651 1.51688,0 2.40063,0.93651 0.89694,0.92332 0.89694,2.53253 0,1.60922 -0.89694,2.54573 -0.88375,0.92332 -2.40063,0.92332 z m 0,-1.38498 q 0.72546,0 1.14755,-0.55399 0.43528,-0.56718 0.43528,-1.53008 0,-0.96289 -0.43528,-1.51688 -0.42209,-0.56718 -1.14755,-0.56718 -0.73866,0 -1.17394,0.56718 -0.42209,0.55399 -0.42209,1.51688 0,0.9629 0.42209,1.53008 0.43528,0.55399 1.17394,0.55399 z m 7.39975,0.0396 q 0.35614,0 0.35614,0.34295 v 0.55399 q 0,0.34295 -0.35614,0.34295 h -0.91013 q -0.92332,0 -1.46412,-0.50123 -0.54081,-0.51442 -0.554,-1.38498 l -0.0132,-3.52181 h -0.48804 q -0.34295,0 -0.34295,-0.34295 l -0.0132,-0.5408 q 0,-0.35614 0.35614,-0.35614 h 0.50123 l 0.47485,-1.30584 q 0.0923,-0.26381 0.4089,-0.26381 h 0.38252 q 0.35614,0 0.35614,0.34295 v 1.2267 h 1.17394 q 0.35613,0 0.35613,0.35614 v 0.5408 q 0,0.34295 -0.35613,0.34295 h -1.17394 l 0.0132,3.20524 q 0,0.44847 0.23743,0.71228 0.23742,0.25061 0.64632,0.25061 z m 6.87213,-2.11044 q 0.0264,0.36932 -0.34295,0.36932 h -4.2077 q 0.10552,0.83099 0.55399,1.30584 0.46166,0.47485 1.20032,0.47485 0.92332,0 1.58283,-0.63313 0.26381,-0.25062 0.48804,0 l 0.4089,0.42209 q 0.22424,0.277 0,0.50123 -1.06841,1.01565 -2.62487,1.01565 -1.51688,0 -2.45339,-0.9497 -0.92332,-0.96289 -0.92332,-2.59849 0,-1.54326 0.84418,-2.46658 0.84417,-0.92332 2.33468,-0.92332 1.41136,0 2.22916,0.89694 0.83099,0.89694 0.91013,2.5853 z m -4.55065,-0.69909 h 2.79634 q -0.21104,-1.55646 -1.39817,-1.55646 -1.17394,0 -1.39817,1.55646 z m 7.65038,4.15494 q -1.14756,0 -2.25554,-0.36932 -0.29019,-0.0791 -0.29019,-0.39571 v -1.21351 q 0,-0.34295 0.34295,-0.34295 h 0.77823 q 0.35613,0 0.35613,0.34295 v 0.59356 q 0.51443,0.15829 1.02885,0.15829 1.21351,0 1.21351,-0.72547 0,-0.38252 -0.38252,-0.61994 -0.36933,-0.23743 -0.91013,-0.38252 -0.54081,-0.1451 -1.0948,-0.32976 -0.5408,-0.18467 -0.92332,-0.60675 -0.36933,-0.42209 -0.36933,-1.06842 0,-0.92332 0.69909,-1.45093 0.69908,-0.52761 1.84664,-0.52761 1.18713,0 2.32149,0.61994 0.25062,0.1319 0.25062,0.42209 v 0.93651 q 0,0.35614 -0.35614,0.35614 h -0.6859 q -0.35613,0 -0.35613,-0.35614 v -0.56718 q -0.56719,-0.22424 -1.12118,-0.22424 -0.96289,0 -0.96289,0.61995 0,0.32975 0.38252,0.55399 0.38252,0.21104 0.92332,0.36933 0.55399,0.15828 1.09479,0.38252 0.554,0.21104 0.93651,0.6727 0.38252,0.44847 0.38252,1.12118 0,0.9497 -0.73865,1.4905 -0.72547,0.5408 -2.11045,0.5408 z"
         id="text3"
         aria-label="Simão's CS Notes" /></g><text
       xml:space="preserve"
       transform="scale(0.26458333)"
       id="text4"
       style="white-space:pre;shape-inside:url(#rect4);display:inline;fill:#000000" /></g></svg>
